<?xml version="1.0" encoding="UTF-8"?>
<svg version="1.1" viewBox="0 0 1000 159" xmlns="http://www.w3.org/2000/svg">
    <g>
        <path d="m86.164 0.78121c4.0406-1.4267 8.2286-0.91886 11.617 1.6848 4.3266 3.3249 6.4378 9.118 7.4078 17.744l0.10691 1.0079c0.016995 0.17009 0.033583 0.34124 0.049772 0.51344l0.092405 1.0459c0.35208 4.2481-2.8067 7.9773-7.0553 8.3293-4.1713 0.34564-7.8424-2.6927-8.3077-6.8238l-0.11637-1.2729c-0.21491-2.2051-0.5045-4.0632-0.85325-5.5555l-0.089183-0.36582-0.24452 0.23653-0.25481 0.25184-0.39046 0.39839c-0.065663 0.068194-0.13162 0.13729-0.19787 0.20728l-0.40101 0.43071-0.40802 0.45224-0.41501 0.47375-0.42199 0.49524c-0.070911 0.08433-0.14211 0.16955-0.2136 0.25567l-0.43241 0.52744-0.43934 0.54889c-0.0738 0.093268-0.14789 0.18743-0.22226 0.28248l-0.4497 0.58102-0.45659 0.60242-0.46345 0.62381-0.4703 0.64517-0.47713 0.66652-0.48394 0.68784-0.49073 0.70915-0.4975 0.73045-0.50426 0.75172-0.511 0.77297-0.51772 0.79421-0.52442 0.81543-0.5311 0.83663-0.80914 1.2947-0.54773 0.88955-0.834 1.374-0.84883 1.4215-0.8636 1.4689-0.87831 1.5163-0.59368 1.0371-0.90269 1.5951-0.91723 1.6423-0.93171 1.6894-0.94614 1.7365-0.63874 1.1838-0.97004 1.8149-0.65462 1.236-0.99376 1.8931-1.0079 1.9399-0.67978 1.3192-1.3783 2.7007-1.05 2.08-0.68925 1.3749 0.5148-0.11818c15.187-3.4877 27.046-3.4904 35.807 0.295l0.35829 0.1577c5.7995 2.5998 6.1475 10.702 0.59227 13.789l-1.2681 0.7002-1.2809 0.69818-1.3012 0.70032-1.3289 0.70664-1.364 0.71712-1.4066 0.73177-2.2061 1.1342-12.489 6.2928-0.8133 0.41448-1.587 0.81624c-0.26018 0.13468-0.51821 0.2687-0.77414 0.40209l-1.5106 0.79295-1.4617 0.77908c-0.23963 0.12877-0.47729 0.25701-0.71302 0.38476l-1.3914 0.76077-0.70985 0.3928 11.501-3.015 3.3772-0.87203 2.2263-0.56471 2.1553-0.53707 2.0864-0.50948 1.3537-0.32436 1.9761-0.46363 1.9126-0.43618 1.8511-0.40879 1.2009-0.25734 1.1751-0.24521 1.7156-0.3451 1.661-0.31789 1.0779-0.19683c0.17774-0.031801 0.35453-0.0631 0.53038-0.093896l1.044-0.17876 1.0221-0.16673 1.0008-0.15472 0.98012-0.14272c0.16166-0.022788 0.32249-0.045077 0.48249-0.066867l0.95022-0.12476c0.15676-0.019796 0.31271-0.039093 0.46788-0.057893l0.92169-0.10683 0.90342-0.094892 0.88575-0.082975c0.14619-0.012837 0.29166-0.025178 0.43644-0.037023l0.86038-0.065129c0.14203-0.0098646 0.28339-0.019234 0.42409-0.028109l0.83637-0.047319 0.82111-0.035465 0.80646-0.023628c0.39967-0.0088572 0.79407-0.013281 1.1835-0.013281 8.3111 0 10.752 11.33 3.1784 14.752l-0.93369 0.42696-1.3306 0.62397-1.0622 0.50898-1.5018 0.73329-1.5996 0.79572-1.6973 0.85813-2.2589 1.1604-2.4114 1.2578-3.0948 1.6379-2.185 1.1697-3.46 1.8713-3.0506 1.6663-1.9311 1.0607 0.60221-0.14794c20.15-4.9214 39.081-7.4447 56.799-7.5593l1.2635-0.004097c4.2632 0 7.7191 3.4556 7.7191 7.7182s-3.456 7.7182-7.7191 7.7182c-39.425 0-86.159 13.044-140.11 39.272-8.8852 4.3195-15.809-8.5529-7.3063-13.584l10.435-6.1621 8.8642-5.2137 9.51-5.569 7.0587-4.1147 6.7634-3.9252 4.6503-2.6877 7.1276-4.0996 5.9211-3.3845 1.0012-0.5699-3.0272 0.77582-2.2586 0.56189-1.3867 0.33047-1.6123 0.3622-1.0028 0.21178-1.5274 0.30772-1.2984 0.25513-1.1117 0.21208c-3.6381 0.67451-6.6062 1.0237-9.0953 1.014-1.8592-0.007243-3.5234-0.20994-5.082-0.70712-2.4677-0.78719-4.5867-2.2891-5.9147-4.7054-1.5971-2.9061-1.1593-6.5075 1.0876-8.9464 6.2002-6.73 12.766-11.836 21.928-17.227l1.2956-0.75439c0.65645-0.37832 1.326-0.75846 2.0095-1.1411l1.3858-0.76873 1.3529-0.73901-0.42512 0.11097c-3.2706 0.85484-6.7549 1.8865-10.449 3.0997l-1.6579 0.55182c-6.453 2.1765-12.358-4.4604-9.4443-10.615l0.9549-2.0115 1.416-2.9609 1.3964-2.8933 0.92011-1.8914 1.364-2.781 1.3447-2.7137 1.3255-2.6466 0.87307-1.7271 0.86462-1.6973 0.85619-1.6676 0.8478-1.6379 1.256-2.4011 0.82694-1.5637 0.81865-1.5341 0.81039-1.5045 0.80217-1.4749 0.79397-1.4454 1.1756-2.1128 0.7736-1.3717c0.12826-0.22617 0.25618-0.45111 0.38376-0.67483l0.76147-1.3276 0.75343-1.2982 0.74541-1.2689 0.73742-1.2396c0.12224-0.20416 0.24415-0.40709 0.36573-0.60881l0.7255-1.1957c0.12026-0.19684 0.24018-0.39246 0.35978-0.58687l0.71364-1.1518 0.70577-1.1226 0.69794-1.0935 0.69013-1.0643c0.11437-0.17496 0.22842-0.34871 0.34215-0.52125l0.67848-1.0207 0.67075-0.99163c0.44459-0.65141 0.88405-1.2835 1.3184-1.8962l0.64773-0.90464 0.64012-0.8757c0.31816-0.43062 0.63349-0.8504 0.94598-1.2594l0.62123-0.80349 0.61372-0.77466c0.71165-0.88696 1.408-1.7151 2.0894-2.4847l0.58033-0.64528 0.57299-0.61661c0.28466-0.30114 0.56659-0.59155 0.84579-0.87123 2.8614-2.8663 5.6402-4.8549 8.5743-5.8909z" fill="#019AD6"/>
        <path d="m221.32 133c2.8143 0 5.0464-0.8692 6.6962-2.6076s2.4747-4.008 2.4747-6.8087v-35.927h38.722c5.9198 0 8.8797-2.4627 8.8797-7.3882 0-5.022-2.9599-7.5331-8.8797-7.5331h-38.722v-27.814h41.633c5.9198 0 8.8797-2.4627 8.8797-7.3882 0-5.022-2.9599-7.5331-8.8797-7.5331h-51.095c-2.8143 0-5.0222 0.77262-6.6234 2.3179-1.6013 1.5452-2.4019 3.7182-2.4019 6.519v84.747c0 2.8008 0.84916 5.0703 2.5475 6.8087 1.6983 1.7384 3.9546 2.6076 6.769 2.6076zm148.78 0c2.3348 0 4.402-0.77576 6.2017-2.3273s2.6996-3.4424 2.6996-5.6727c0-1.2606-0.29184-2.5212-0.87554-3.7818l-40.421-86.255c-0.87554-1.9394-2.2132-3.4182-4.0129-4.4364s-3.721-1.5273-5.7639-1.5273c-2.0429 0-3.9642 0.50909-5.7639 1.5273s-3.1373 2.497-4.0129 4.4364l-40.275 86.255c-0.58369 1.2606-0.87554 2.5212-0.87554 3.7818 0 2.2303 0.92418 4.1212 2.7725 5.6727s3.8913 2.3273 6.1288 2.3273c1.6538 0 3.1617-0.41212 4.5236-1.2364 1.3619-0.82424 2.432-2.1091 3.2103-3.8545l8.7554-19.491h51.365l8.7554 19.491c0.77825 1.7455 1.8484 3.0303 3.2103 3.8545 1.3619 0.82424 2.8212 1.2364 4.3777 1.2364zm-22.099-39h-38l19-43 19 43zm54.426 39c2.9457 0 5.2778-0.87151 6.9961-2.6145 1.7183-1.743 2.5775-4.0186 2.5775-6.8268v-85.263c0-2.8082-0.85917-5.0596-2.5775-6.7542-1.7183-1.6946-4.0504-2.5419-6.9961-2.5419-2.8475 0-5.1305 0.8473-6.8488 2.5419-1.7183 1.6946-2.5775 3.946-2.5775 6.7542v85.263c0 2.8082 0.85917 5.0838 2.5775 6.8268 1.7183 1.743 4.0013 2.6145 6.8488 2.6145zm106.53 0c2.4306 0 4.5451-0.72332 6.3438-2.1699s2.6979-3.279 2.6979-5.4972c0-1.6395-0.58333-3.3272-1.75-5.0632l-13.271-20.108c-2.0417-3.0861-4.1319-5.4972-6.2708-7.2331-2.1389-1.736-4.6181-2.9415-7.4375-3.6166 8.2639-1.4466 14.656-4.7015 19.177-9.7647 4.5208-5.0632 6.7812-11.549 6.7812-19.457 0-9.7406-3.0382-17.191-9.1146-22.35s-14.948-7.7395-26.615-7.7395h-36.458c-2.8194 0-5.0312 0.77154-6.6354 2.3146-1.6042 1.5431-2.4062 3.713-2.4062 6.5098v84.628c0 2.8933 0.85069 5.1838 2.5521 6.8715s3.9618 2.5316 6.7812 2.5316c2.8194 0 5.0556-0.84387 6.7083-2.5316 1.6528-1.6877 2.4792-3.9782 2.4792-6.8715v-32.404h14.292c3.5 0 6.3438 0.62687 8.5312 1.8806s4.2535 3.4237 6.1979 6.5098l19.396 29.222c0.97222 1.4466 2.1632 2.5316 3.5729 3.2549 1.4097 0.72332 2.8924 1.085 4.4479 1.085zm-32.492-56h-24.466v-32h24.466c7.0874 0 12.282 1.2676 15.583 3.8027 3.301 2.5351 4.9515 6.577 4.9515 12.126 0 5.4529-1.6505 9.4948-4.9515 12.126-3.301 2.6308-8.4951 3.9462-15.583 3.9462zm162.89 56c1.4522 0 2.7593-0.36262 3.9211-1.0879 1.1618-0.72524 1.9847-1.7648 2.4688-3.1186l32.821-92.396c0.29045-0.87029 0.43567-1.6439 0.43567-2.3208 0-1.5472-0.55669-2.7801-1.6701-3.6987s-2.4446-1.378-3.9937-1.378c-1.1618 0-2.2268 0.31427-3.1949 0.94282-0.96816 0.62854-1.6459 1.5714-2.0331 2.8285l-28.9 82.678-28.609-81.662c-0.48408-1.4505-1.2586-2.5625-2.3236-3.3361-1.065-0.77359-2.2268-1.1604-3.4854-1.1604-1.2586 0-2.4204 0.36262-3.4854 1.0879-1.065 0.72524-1.8395 1.8131-2.3236 3.2636l-29.045 81.517-28.609-82.388c-0.38726-1.2571-1.0892-2.1999-2.1058-2.8285s-2.1058-0.94282-3.2675-0.94282c-1.5491 0-2.9287 0.4835-4.1389 1.4505-1.2102 0.96699-1.8153 2.2241-1.8153 3.7713 0 0.67689 0.14522 1.4021 0.43567 2.1757l32.966 92.396c0.48408 1.3538 1.307 2.3933 2.4688 3.1186 1.1618 0.72524 2.4204 1.0879 3.7758 1.0879 1.3554 0 2.614-0.36262 3.7758-1.0879 1.1618-0.72524 1.9847-1.7648 2.4688-3.1186l28.754-80.357 28.464 80.357c0.48408 1.3538 1.307 2.3933 2.4688 3.1186 1.1618 0.72524 2.4204 1.0879 3.7758 1.0879zm69.646-88c2.3704 0 4.2963-0.69307 5.7778-2.0792 1.4815-1.3861 2.2222-3.2178 2.2222-5.495 0-2.1782-0.74074-3.9604-2.2222-5.3465-1.4815-1.3861-3.4074-2.0792-5.7778-2.0792s-4.2963 0.69307-5.7778 2.0792c-1.4815 1.3861-2.2222 3.1683-2.2222 5.3465 0 2.2772 0.74074 4.1089 2.2222 5.495 1.4815 1.3861 3.4074 2.0792 5.7778 2.0792zm0.074074 88c1.7778 0 3.2099-0.48473 4.2963-1.4542 1.0864-0.96946 1.6296-2.4236 1.6296-4.3626v-61.367c0-1.842-0.54321-3.2719-1.6296-4.2898-1.0864-1.0179-2.5185-1.5269-4.2963-1.5269s-3.2346 0.50896-4.3704 1.5269c-1.1358 1.0179-1.7037 2.4479-1.7037 4.2898v61.367c0 1.842 0.5679 3.2719 1.7037 4.2898 1.1358 1.0179 2.5926 1.5269 4.3704 1.5269zm79.832 0c1.6495 0 2.9108-0.41307 3.784-1.2392 0.87324-0.82615 1.3099-1.9682 1.3099-3.4261 0-1.4579-0.43662-2.5999-1.3099-3.4261-0.87324-0.82615-2.1346-1.2392-3.784-1.2392h-41.479l43.225-51.901c1.1643-1.4579 1.7465-2.9644 1.7465-4.5195 0-1.4579-0.53365-2.6971-1.6009-3.7177s-2.4742-1.5308-4.2207-1.5308h-49.338c-1.6495 0-2.9351 0.43737-3.8568 1.3121s-1.3826 2.0411-1.3826 3.499c0 1.3607 0.46088 2.4541 1.3826 3.2803 0.92175 0.82615 2.2074 1.2392 3.8568 1.2392h39.878l-43.08 51.901c-1.1643 1.4579-1.7465 2.9644-1.7465 4.5195 0 1.4579 0.53365 2.6971 1.6009 3.7177 1.0673 1.0205 2.4257 1.5308 4.0751 1.5308h50.939zm43.096 0c4.9424 0 9.3033-1.1301 13.083-3.3903s6.5898-5.4582 8.4311-9.5939v6.9249c0 1.7312 0.533 3.1258 1.599 4.1838 1.066 1.058 2.4712 1.587 4.2155 1.587s3.1253-0.52898 4.1429-1.587 1.5263-2.4526 1.5263-4.1838v-39.241c0-18.466-8.8672-27.7-26.602-27.7-4.264 0-8.5522 0.55303-12.865 1.6591-4.3124 1.1061-8.1646 2.6209-11.556 4.5445-1.8413 1.058-3.1738 2.0919-3.9975 3.1018-0.82373 1.0099-1.2356 2.1881-1.2356 3.5346 0 1.3465 0.38764 2.4526 1.1629 3.3182 0.77527 0.86561 1.7444 1.2984 2.9073 1.2984 1.066 0 2.9073-0.81752 5.5238-2.4526 6.7836-3.5586 13.47-5.3379 20.06-5.3379 5.33 0 9.1821 1.3465 11.556 4.0395s3.5614 6.9249 3.5614 12.696v4.7609h-3.198c-11.048 0-19.673 0.64921-25.875 1.9476s-10.66 3.4144-13.373 6.3478c-2.7134 2.9335-4.0702 7.0451-4.0702 12.335 0 3.9433 1.1145 7.5501 3.3434 10.82 2.2289 3.2701 5.2573 5.8188 9.0852 7.6462 3.8279 1.8274 8.0192 2.7411 12.574 2.7411zm1.3435-9c-4.1125 0-7.5316-1.2213-10.257-3.6638-2.7257-2.4425-4.0886-5.5316-4.0886-9.2672 0-3.2567 0.93249-5.7232 2.7975-7.3994s4.9972-2.8736 9.3966-3.592c4.3994-0.71839 10.807-1.0776 19.224-1.0776h2.5823v4.1667c0 6.1303-1.8411 11.135-5.5232 15.014-3.6821 3.8793-8.3924 5.819-14.131 5.819zm58.594 9c1.7385 0 3.139-0.48451 4.2014-1.4535 1.0624-0.96902 1.5936-2.4226 1.5936-4.3606v-35.321c0-5.4265 1.5695-10.15 4.7085-14.172 3.139-4.0214 7.9441-6.3229 14.415-6.9043l4.3463-0.43606c2.1249-0.1938 3.6219-0.75099 4.4912-1.6716 0.86926-0.92057 1.3039-2.1561 1.3039-3.7065 0-3.5854-2.0283-5.2327-6.0848-4.942l-2.0283 0.14535c-4.8292 0.38761-9.1031 1.6958-12.822 3.9245-3.7185 2.2287-6.5919 5.475-8.6201 9.7387v-8.1398c0-1.7442-0.53121-3.1251-1.5936-4.1426-1.0624-1.0175-2.3663-1.5262-3.9117-1.5262-1.6419 0-3.0424 0.50874-4.2014 1.5262-1.159 1.0175-1.7385 2.4468-1.7385 4.2879v61.339c0 1.8411 0.55536 3.2704 1.6661 4.2879 1.1107 1.0175 2.5353 1.5262 4.2739 1.5262zm71.453 0c5.5228 0 10.343-1.2087 14.461-3.6262 4.1179-2.4175 7.2426-5.8503 9.3742-10.298v7.8326c0 1.7406 0.50868 3.1427 1.526 4.2064 1.0174 1.0637 2.4465 1.5955 4.2874 1.5955 1.8409 0 3.2943-0.53184 4.3601-1.5955 1.0658-1.0637 1.5987-2.4658 1.5987-4.2064v-92.251c0-1.6439-0.5329-2.9977-1.5987-4.0614s-2.5192-1.5955-4.3601-1.5955c-1.8409 0-3.2701 0.50767-4.2874 1.523-1.0174 1.0153-1.526 2.3933-1.526 4.1339v38.873c-2.1316-4.4482-5.2563-7.881-9.3742-10.298-4.1179-2.4175-8.9382-3.6262-14.461-3.6262-6.201 0-11.675 1.4988-16.423 4.4965s-8.4295 7.2524-11.046 12.764c-2.6161 5.5119-3.9241 11.894-3.9241 19.146 0 7.3491 1.308 13.804 3.9241 19.364s6.2979 9.8875 11.046 12.982 10.222 4.6416 16.423 4.6416zm2.2517-9c-6.83 0-12.145-2.4016-15.945-7.2049-3.7998-4.8032-5.6997-11.523-5.6997-20.159 0-8.442 1.8999-14.992 5.6997-19.65 3.7998-4.6577 9.1147-6.9865 15.945-6.9865 6.83 0 12.097 2.3288 15.8 6.9865 3.7036 4.6577 5.5554 11.305 5.5554 19.941 0 8.6361-1.8518 15.307-5.5554 20.013-3.7036 4.7062-8.9704 7.0593-15.8 7.0593z" fill="#333"/>
    </g>
</svg>
